<svg width="32" height="32" viewBox="0 0 32 32" fill="none" xmlns="http://www.w3.org/2000/svg">
<path d="M23.604 12.5149C23.604 16.7144 20.1996 20.1188 16 20.1188C11.8004 20.1188 8.39604 16.7144 8.39604 12.5149C8.39604 8.3153 11.8004 4.91089 16 4.91089C20.1996 4.91089 23.604 8.3153 23.604 12.5149Z" fill="#E4E4E7"/>
<path d="M30.4158 32C30.4158 30.9182 30.043 29.847 29.3185 28.8476C28.594 27.8482 27.5322 26.9401 26.1935 26.1751C24.8549 25.4102 23.2657 24.8034 21.5167 24.3894C19.7677 23.9754 17.8931 23.7624 16 23.7624C14.1069 23.7624 12.2323 23.9754 10.4833 24.3894C8.73429 24.8034 7.14509 25.4102 5.80646 26.1751C4.46783 26.9401 3.40596 27.8482 2.6815 28.8476C1.95703 29.847 1.58416 30.9182 1.58416 32H30.4158Z" fill="#E4E4E7"/>
</svg>
